<?xml version="1.0" encoding="iso-8859-1"?>
<!-- Generator: Adobe Illustrator 24.1.0, SVG Export Plug-In . SVG Version: 6.00 Build 0)  -->
<svg version="1.1" xmlns="http://www.w3.org/2000/svg" xmlns:xlink="http://www.w3.org/1999/xlink" x="0px" y="0px"
	 viewBox="0 0 512 512" style="enable-background:new 0 0 512 512;" xml:space="preserve">
<g id="_x32_4_x2C__Book_x2C__notebook_x2C__notepad_x2C__text_x2C__paper">
	<g>
		<g>
			<polygon style="fill:#DD6426;" points="431.313,457.875 431.313,484.438 431.313,511 256,511 80.687,511 80.687,484.438 
				80.687,457.875 256,436.625 			"/>
			<path style="fill:#E8E8ED;" d="M80.687,64.75v393.125h350.625V64.75C413.625,64.75,94.149,64.75,80.687,64.75z"/>
			<path style="fill:#5B727B;" d="M149.75,1c-20.505,0-37.188,16.682-37.188,37.188V64.75c6.356,0,13.487,0,21.25,0V38.188
				c0-8.788,7.15-15.938,15.938-15.938c4.26,0,8.263,1.657,11.265,4.658c3.013,3.02,4.673,7.026,4.673,11.28V64.75v31.875
				c0,5.868,4.757,10.625,10.625,10.625s10.625-4.757,10.625-10.625V64.75V38.188c0-9.922-3.865-19.259-10.889-26.297
				C169.026,4.867,159.687,1,149.75,1z"/>
			<path style="fill:#5B727B;" d="M245.375,1c-20.505,0-37.188,16.682-37.188,37.188V64.75c6.991,0,14.089,0,21.25,0V38.188
				c0-8.788,7.15-15.938,15.938-15.938c4.26,0,8.263,1.657,11.264,4.659c3.014,3.019,4.673,7.025,4.673,11.279V64.75v31.875
				c0,5.868,4.757,10.625,10.625,10.625s10.625-4.757,10.625-10.625V64.75V38.188c0-9.923-3.865-19.259-10.889-26.297
				C264.653,4.868,255.313,1,245.375,1z"/>
			<path style="fill:#5B727B;" d="M367.299,11.891C360.278,4.868,350.937,1,341,1c-20.505,0-37.188,16.682-37.188,37.188V64.75
				c7.217,0,14.317,0,21.25,0V38.188c0-8.788,7.149-15.938,15.938-15.938c4.26,0,8.263,1.657,11.264,4.659
				c3.014,3.019,4.673,7.025,4.673,11.279V64.75v31.875c0,5.868,4.757,10.625,10.625,10.625s10.625-4.757,10.625-10.625V64.75
				V38.188C378.188,28.265,374.322,18.929,367.299,11.891z"/>
			<path style="fill:#7DD5F3;" d="M250.688,362.25H133.812c-5.868,0-10.625-4.757-10.625-10.625S127.944,341,133.812,341h116.875
				c5.868,0,10.625,4.757,10.625,10.625S256.556,362.25,250.688,362.25z"/>
			<path style="fill:#7DD5F3;" d="M378.188,404.75H133.812c-5.868,0-10.625-4.757-10.625-10.625s4.757-10.625,10.625-10.625h244.375
				c5.868,0,10.625,4.757,10.625,10.625S384.055,404.75,378.188,404.75z"/>
			<path style="fill:#7DD5F3;" d="M250.688,266.625H133.812c-5.868,0-10.625-4.757-10.625-10.625s4.757-10.625,10.625-10.625
				h116.875c5.868,0,10.625,4.757,10.625,10.625S256.556,266.625,250.688,266.625z"/>
			<path style="fill:#7DD5F3;" d="M378.188,309.125H133.812c-5.868,0-10.625-4.757-10.625-10.625s4.757-10.625,10.625-10.625
				h244.375c5.868,0,10.625,4.757,10.625,10.625S384.055,309.125,378.188,309.125z"/>
			<path style="fill:#7DD5F3;" d="M250.688,171H133.812c-5.868,0-10.625-4.757-10.625-10.625c0-5.868,4.757-10.625,10.625-10.625
				h116.875c5.868,0,10.625,4.757,10.625,10.625C261.313,166.243,256.556,171,250.688,171z"/>
			<path style="fill:#7DD5F3;" d="M378.188,213.5H133.812c-5.868,0-10.625-4.757-10.625-10.625s4.757-10.625,10.625-10.625h244.375
				c5.868,0,10.625,4.757,10.625,10.625S384.055,213.5,378.188,213.5z"/>
		</g>
	</g>
</g>
<g id="Layer_1">
</g>
</svg>
